<?xml version="1.0" standalone="no"?>
<!DOCTYPE svg PUBLIC "-//W3C//DTD SVG 20010904//EN"
 "http://www.w3.org/TR/2001/REC-SVG-20010904/DTD/svg10.dtd">
<svg version="1.0" xmlns="http://www.w3.org/2000/svg"
 width="1176.000000pt" height="1176.000000pt" viewBox="0 0 1176.000000 1176.000000"
 preserveAspectRatio="xMidYMid meet">
<metadata>
Created by potrace 1.14, written by Peter Selinger 2001-2017
</metadata>
<g transform="translate(0.000000,1176.000000) scale(0.100000,-0.100000)"
fill="#000000" stroke="none">
<path d="M5235 10673 c-5 -15 -9 -30 -10 -33 -1 -3 -6 -16 -13 -30 -6 -14 -23
-56 -37 -95 -14 -38 -30 -79 -35 -90 -5 -11 -23 -58 -40 -105 -17 -47 -34 -94
-39 -105 -12 -26 -86 -220 -112 -293 -30 -82 -70 -184 -80 -204 -5 -10 -9 -25
-9 -33 0 -8 -5 -15 -11 -15 -5 0 -8 -3 -5 -8 2 -4 -3 -23 -11 -42 -9 -19 -15
-41 -14 -47 1 -7 -3 -13 -9 -13 -5 0 -9 -3 -8 -7 3 -8 -12 -50 -38 -110 -8
-17 -14 -38 -14 -47 0 -9 -4 -16 -10 -16 -5 0 -9 -3 -8 -7 3 -11 -23 -86 -35
-100 -5 -7 -7 -13 -4 -13 4 0 -4 -26 -18 -57 -13 -32 -42 -105 -63 -163 -22
-58 -43 -114 -48 -125 -4 -11 -8 -22 -9 -25 -1 -3 -7 -18 -14 -35 -7 -16 -14
-34 -15 -40 -2 -5 -8 -23 -15 -40 -6 -16 -21 -55 -32 -85 -12 -30 -27 -68 -34
-85 -13 -29 -31 -78 -82 -220 -14 -38 -28 -72 -32 -75 -3 -3 -7 -12 -9 -20 -3
-17 -49 -139 -70 -190 -9 -19 -17 -41 -18 -48 -1 -8 -6 -21 -10 -30 -4 -9 -8
-19 -9 -22 -1 -3 -5 -14 -10 -25 -20 -48 -47 -121 -49 -130 -1 -5 -10 -27 -19
-49 -9 -21 -17 -40 -17 -42 0 -1 -5 -15 -12 -31 -6 -15 -12 -31 -13 -35 -2 -5
-4 -11 -5 -15 -1 -5 -2 -11 -1 -15 0 -5 -3 -8 -9 -8 -6 0 -9 -3 -8 -7 3 -11
-23 -86 -33 -97 -5 -6 -9 -17 -9 -25 0 -9 -6 -28 -14 -43 -8 -14 -19 -43 -26
-65 -7 -21 -17 -44 -23 -50 -5 -7 -7 -13 -4 -13 3 0 -8 -33 -24 -72 -17 -40
-32 -80 -34 -88 -2 -8 -10 -31 -18 -50 -26 -64 -30 -75 -32 -82 -2 -5 -4 -10
-5 -13 -1 -3 -3 -8 -5 -12 -1 -5 -7 -21 -14 -38 -6 -16 -16 -41 -21 -55 -5
-14 -15 -38 -21 -55 -7 -16 -13 -32 -14 -35 -2 -6 -24 -60 -32 -80 -3 -8 -5
-21 -4 -27 1 -7 -4 -13 -10 -13 -7 0 -9 -3 -6 -7 4 -3 2 -12 -4 -20 -6 -7 -8
-13 -4 -13 4 0 1 -10 -7 -22 -8 -13 -20 -43 -28 -68 -7 -25 -17 -49 -20 -55
-7 -11 -44 -107 -45 -115 0 -3 -8 -24 -17 -45 -24 -57 -169 -437 -173 -455 -2
-8 -12 -35 -23 -60 -21 -49 -35 -82 -37 -90 -5 -22 -30 -91 -41 -115 -14 -31
-214 -553 -219 -570 -1 -5 -8 -26 -16 -45 -7 -19 -12 -38 -11 -42 1 -5 -3 -8
-8 -8 -6 0 -10 -7 -10 -16 0 -9 -11 -42 -24 -73 -13 -31 -44 -110 -69 -176
-25 -66 -48 -129 -53 -140 -4 -11 -8 -22 -9 -25 -1 -3 -7 -18 -14 -35 -7 -16
-17 -41 -21 -55 -5 -14 -36 -97 -70 -185 -34 -88 -69 -180 -77 -205 -9 -25
-20 -49 -24 -54 -5 -6 -9 -17 -9 -25 -1 -9 -16 -51 -34 -94 l-33 -78 -63 168
c-35 92 -69 182 -76 198 -26 59 -86 220 -86 233 -1 6 -6 12 -11 12 -6 0 -8 2
-5 5 3 3 -14 56 -39 118 -24 62 -46 119 -48 127 -2 8 -10 31 -18 50 -22 53
-30 75 -32 80 -7 20 -18 48 -26 65 -6 12 -11 27 -13 35 -2 8 -8 29 -15 45 -20
47 -82 209 -85 220 -1 6 -10 27 -19 49 -9 21 -17 44 -17 51 0 6 -3 15 -7 19
-5 4 -8 11 -9 14 0 4 -6 21 -13 37 -6 17 -25 66 -42 110 -16 44 -34 89 -39
100 -11 27 -22 60 -19 60 1 0 -4 11 -11 25 -8 14 -15 28 -16 33 -1 4 -2 8 -4
10 -1 1 -3 9 -5 18 -1 9 -10 32 -18 50 -8 19 -21 51 -29 73 l-15 38 -12 -33
c-7 -19 -19 -47 -26 -64 -22 -48 -75 -191 -75 -199 0 -5 -6 -22 -14 -39 -17
-39 -72 -180 -117 -302 -18 -49 -39 -99 -46 -111 -7 -11 -10 -24 -7 -27 4 -4
2 -12 -3 -19 -6 -7 -20 -40 -32 -73 -12 -33 -40 -107 -63 -165 -82 -213 -132
-342 -133 -350 -1 -3 -5 -14 -10 -25 -41 -100 -52 -134 -47 -139 3 -3 0 -6 -6
-6 -7 0 -12 -7 -12 -16 0 -9 -6 -30 -14 -47 -13 -31 -74 -188 -112 -292 -10
-27 -22 -53 -27 -56 -5 -3 -8 -9 -7 -13 4 -15 -12 -66 -21 -66 -6 0 -7 -5 -4
-10 4 -6 2 -16 -3 -23 -5 -7 -15 -30 -22 -52 -7 -22 -21 -58 -30 -80 -10 -22
-23 -56 -30 -75 -7 -19 -18 -48 -25 -65 -7 -16 -18 -49 -25 -72 -7 -24 -18
-43 -23 -43 -6 0 -8 -3 -4 -6 5 -5 -26 -98 -57 -169 -25 -58 -69 -180 -65
-180 1 0 -4 -11 -11 -25 -8 -14 -15 -30 -16 -36 -1 -6 -9 -27 -17 -45 -8 -19
-20 -50 -27 -69 -7 -19 -19 -48 -25 -65 -7 -16 -23 -57 -35 -90 -12 -33 -28
-72 -36 -87 -8 -15 -13 -30 -12 -35 1 -4 -3 -18 -10 -29 -6 -12 -8 -24 -5 -28
3 -3 1 -6 -5 -6 -7 0 -11 -3 -10 -7 2 -9 -9 -44 -27 -88 -22 -54 -44 -109 -83
-215 -22 -58 -43 -114 -47 -125 -5 -11 -7 -23 -7 -28 1 -4 -3 -7 -9 -7 -5 0
-7 -5 -4 -10 4 -6 2 -16 -3 -23 -6 -7 -26 -57 -47 -112 -20 -55 -40 -109 -46
-120 -8 -17 -54 -140 -63 -170 -2 -5 -10 -26 -18 -45 -8 -19 -28 -69 -43 -110
-15 -41 -33 -88 -40 -105 -7 -16 -18 -46 -25 -65 -7 -19 -18 -48 -25 -65 -7
-16 -16 -41 -20 -55 -4 -14 -15 -43 -25 -65 -10 -22 -20 -49 -24 -60 -6 -20
-1 -20 5869 -20 3611 0 5875 4 5875 9 0 14 -24 80 -31 86 -3 3 -11 26 -19 53
-7 26 -17 47 -23 47 -6 0 -8 3 -5 6 3 3 -3 29 -14 57 -11 29 -28 76 -38 105
-11 29 -23 58 -27 65 -4 6 -8 17 -9 22 -1 6 -13 39 -27 75 -28 73 -39 103 -42
110 -1 3 -5 14 -10 25 -4 11 -23 61 -42 110 -19 50 -53 137 -75 194 -23 58
-41 111 -41 118 0 7 -4 13 -9 13 -4 0 -8 6 -8 13 0 6 -13 46 -29 87 -17 41
-53 136 -81 210 -28 74 -72 189 -98 255 -26 66 -47 122 -47 125 0 3 -15 43
-34 90 -18 47 -42 110 -53 140 -11 30 -27 69 -34 87 -8 18 -27 67 -43 110 -36
100 -86 230 -102 268 -6 17 -13 37 -15 45 -2 8 -8 24 -13 37 -20 43 -30 68
-61 153 -18 47 -38 100 -47 118 -8 18 -16 41 -18 51 -2 11 -11 33 -19 50 -9
17 -16 33 -15 36 1 5 -24 71 -56 150 -23 56 -37 94 -37 102 0 4 -5 17 -11 28
-6 11 -12 25 -13 30 -2 8 -120 319 -199 520 -13 33 -49 128 -80 210 -31 83
-74 195 -95 250 -55 143 -62 160 -60 160 0 0 -12 32 -29 72 -16 39 -27 74 -23
77 3 3 1 6 -5 6 -5 0 -10 6 -10 13 -1 10 -58 167 -83 222 -4 11 -18 47 -30 80
-13 33 -29 72 -37 87 -7 15 -14 31 -15 35 -1 10 -6 28 -15 51 -3 9 -5 20 -5
25 1 4 -3 7 -9 7 -5 0 -7 5 -3 11 3 6 2 14 -3 18 -5 3 -16 26 -25 51 -46 133
-65 184 -87 230 -7 14 -13 32 -15 40 -2 8 -8 29 -15 45 -6 17 -16 44 -22 60
-6 17 -19 48 -29 70 -9 22 -23 58 -30 80 -7 22 -17 46 -23 53 -5 6 -6 12 -2
12 4 0 0 11 -9 25 -9 14 -14 25 -12 25 3 0 -4 21 -15 48 -12 26 -22 54 -24 62
-2 8 -11 33 -21 55 -10 22 -18 42 -19 45 0 3 -14 39 -30 80 -16 41 -30 77 -30
80 -5 25 -42 110 -48 110 -4 0 -5 5 -2 10 4 6 3 16 -2 23 -5 7 -18 35 -27 62
-29 80 -66 178 -82 212 -8 17 -14 37 -14 45 0 7 -6 22 -14 33 -7 11 -16 34
-20 50 -4 17 -13 44 -21 60 -7 17 -27 68 -45 115 -18 47 -38 99 -45 115 -11
25 -25 66 -30 85 -1 3 -8 19 -15 35 -7 17 -14 35 -15 41 -2 6 -19 53 -40 105
-20 52 -46 119 -57 149 -12 30 -27 69 -33 85 -20 47 -28 69 -31 85 -2 8 -7 23
-13 35 -5 11 -21 49 -34 85 -14 36 -28 74 -32 85 -5 11 -9 22 -10 25 -1 3 -7
19 -14 35 -41 102 -65 171 -63 179 2 5 -4 4 -12 -3 -8 -7 -18 -23 -22 -34 -6
-24 -90 -247 -107 -287 -6 -14 -11 -27 -12 -30 -1 -3 -5 -13 -9 -22 -4 -9 -9
-22 -10 -30 -2 -7 -8 -26 -14 -41 -7 -16 -12 -30 -12 -31 0 -2 -8 -21 -17 -42
-9 -22 -17 -43 -19 -49 -1 -5 -18 -50 -37 -100 -35 -90 -48 -126 -49 -135 0
-3 -9 -23 -21 -45 -11 -22 -20 -42 -20 -45 0 -3 -3 -15 -8 -28 -5 -13 -9 -29
-9 -37 0 -7 -3 -15 -7 -17 -7 -3 -41 -86 -47 -113 -1 -5 -8 -20 -14 -33 -7
-12 -10 -27 -7 -32 3 -6 1 -10 -4 -10 -6 0 -11 -6 -11 -14 0 -7 -7 -27 -15
-42 -8 -16 -15 -37 -15 -46 0 -10 -4 -18 -10 -18 -5 0 -9 -3 -8 -7 3 -12 -23
-86 -36 -102 -6 -8 -10 -17 -10 -20 1 -3 -3 -17 -8 -31 -5 -14 -10 -33 -11
-42 -1 -10 -5 -18 -9 -18 -4 0 -8 -5 -8 -11 0 -9 -32 -95 -86 -234 -4 -11 -8
-22 -9 -25 -1 -3 -7 -18 -13 -33 -7 -16 -12 -30 -12 -32 0 -2 -5 -16 -12 -32
-6 -15 -12 -30 -13 -33 -1 -3 -7 -18 -14 -35 -28 -69 -103 -271 -105 -281 -1
-7 -7 -18 -13 -25 -6 -8 -11 -16 -11 -19 2 -9 -24 -85 -32 -95 -5 -5 -15 -32
-23 -60 -8 -27 -22 -63 -30 -79 -9 -16 -14 -33 -11 -38 3 -4 1 -8 -4 -8 -5 0
-9 -6 -9 -12 0 -12 -85 -237 -121 -323 -9 -21 -17 -42 -17 -45 0 -6 -41 -111
-58 -150 -6 -14 -11 -27 -12 -30 -1 -5 -45 -123 -66 -175 -7 -16 -13 -34 -14
-40 -2 -8 -41 -110 -70 -180 -4 -11 -9 -24 -10 -30 -2 -5 -15 -41 -30 -78 -19
-48 -30 -65 -36 -55 -5 7 -9 18 -9 24 0 6 -8 29 -17 50 -9 22 -18 42 -19 47
-1 4 -3 9 -4 12 -1 3 -3 8 -5 13 -1 4 -7 20 -13 35 -7 16 -12 31 -12 34 0 3
-6 19 -14 36 -7 18 -24 59 -36 92 -12 33 -28 74 -35 90 -24 60 -40 100 -40
105 0 3 -10 30 -22 60 -12 30 -40 105 -63 165 -23 61 -45 119 -50 130 -20 48
-62 161 -64 170 -1 6 -6 17 -11 25 -5 8 -11 24 -12 34 -2 11 -8 25 -14 33 -6
7 -8 13 -5 13 4 0 2 10 -5 21 -10 20 -97 241 -103 264 -2 6 -8 23 -14 38 -7
16 -12 31 -12 34 0 3 -6 19 -14 36 -43 100 -76 194 -75 211 0 5 -4 12 -11 16
-6 4 -12 13 -14 21 -3 19 -27 92 -35 104 -3 6 -6 12 -7 15 0 3 -4 14 -9 25 -4
11 -18 47 -30 80 -13 33 -34 89 -48 125 -25 64 -124 322 -157 410 -9 25 -23
59 -29 75 -7 17 -14 35 -15 40 -3 10 -8 24 -33 85 -8 19 -21 55 -30 80 -8 25
-20 56 -26 70 -6 14 -11 27 -11 30 -1 5 -38 100 -56 145 -4 11 -22 58 -40 105
-18 47 -36 94 -40 105 -12 28 -73 190 -95 250 -10 28 -23 56 -28 63 -5 6 -6
12 -3 12 4 0 1 10 -6 23 -6 12 -13 28 -14 35 -1 8 -9 28 -17 45 -8 18 -40 102
-72 187 -31 85 -61 164 -66 175 -43 105 -129 333 -129 344 0 6 -4 11 -8 11 -4
0 -8 8 -9 18 -1 9 -9 35 -19 57 -10 22 -18 45 -20 50 -1 6 -27 74 -58 153 -30
78 -63 166 -73 195 -9 28 -21 55 -26 58 -5 3 -8 8 -7 10 3 9 -88 251 -99 262
-5 5 -12 -4 -16 -20z"/>
</g>
</svg>
